name Run_300 01_newCOP3_v24.mot
datacolumns 19
datarows 104
range 2.679167 2.786458
DataType=double
version=3
OpenSimVersion=4.3-2021-08-27-4bc7ad9
endheader
time	R_ground_force_vx	R_ground_force_vy	R_ground_force_vz	R_ground_force_px	R_ground_force_py	R_ground_force_pz	L_ground_force_vx	L_ground_force_vy	L_ground_force_vz	L_ground_force_px	L_ground_force_py	L_ground_force_pz	R_ground_torque_x	R_ground_torque_y	R_ground_torque_z	L_ground_torque_x	L_ground_torque_y	L_ground_torque_z
2.679167	0	0	0	0	0	0	86.489197	1240.343994	62.450142	0.658572	0	-0.442402	0	0	0	0	-2.052277	0
2.680208	0	0	0	0	0	0	89.4132	1226.810181	61.004955	0.656183	0	-0.442447	0	0	0	0	-1.930763	0
2.68125	0	0	0	0	0	0	92.32946800000001	1213.112305	59.521809	0.6537809999999999	0	-0.442487	0	0	0	0	-1.808235	0
2.682292	0	0	0	0	0	0	95.23007200000001	1199.255371	58.00449	0.6513679999999999	0	-0.442523	0	0	0	0	-1.684777	0
2.683333	0	0	0	0	0	0	98.107185	1185.244385	56.457001	0.648944	0	-0.442552	0	0	0	0	-1.560479	0
2.684375	0	0	0	0	0	0	100.953194	1171.084106	54.883484	0.6465109999999999	0	-0.442574	0	0	0	0	-1.435439	0
2.685417	0	0	0	0	0	0	103.760689	1156.779297	53.288155	0.644068	0	-0.44259	0	0	0	0	-1.309759	0
2.686458	0	0	0	0	0	0	106.522545	1142.334961	51.675217	0.641616	0	-0.442597	0	0	0	0	-1.18355	0
2.6875	0	0	0	0	0	0	109.231873	1127.756104	50.048805	0.639157	0	-0.442596	0	0	0	0	-1.056927	0
2.688542	0	0	0	0	0	0	111.881996	1113.047729	48.41291	0.636692	0	-0.442585	0	0	0	0	-0.930014	0
2.689583	0	0	0	0	0	0	114.466408	1098.21521	46.77132	0.634222	0	-0.442564	0	0	0	0	-0.802939	0
2.690625	0	0	0	0	0	0	116.978745	1083.26355	45.127563	0.631748	0	-0.442532	0	0	0	0	-0.675835	0
2.691667	0	0	0	0	0	0	119.412773	1068.197998	43.484867	0.6292720000000001	0	-0.44249	0	0	0	0	-0.548843	0
2.692708	0	0	0	0	0	0	121.762413	1053.023438	41.846115	0.626796	0	-0.442436	0	0	0	0	-0.422106	0
2.69375	0	0	0	0	0	0	124.021797	1037.744873	40.213818	0.624321	0	-0.44237	0	0	0	0	-0.295776	0
2.694792	0	0	0	0	0	0	126.185333	1022.367188	38.590115	0.621849	0	-0.442293	0	0	0	0	-0.170005	0
2.695833	0	0	0	0	0	0	128.247849	1006.894897	36.976749	0.619382	0	-0.442204	0	0	0	0	-0.044954	0
2.696875	0	0	0	0	0	0	130.204758	991.33252	35.375076	0.616922	0	-0.442103	0	0	0	-0	0.07921499999999999	-0
2.697917	0	0	0	0	0	0	132.052155	975.684448	33.786095	0.61447	0	-0.44199	0	0	0	-0	0.202333	-0
2.698958	0	0	0	0	0	0	133.787018	959.955139	32.210453	0.612027	0	-0.441867	0	0	0	-0	0.324231	-0
2.7	0	0	0	0	0	0	135.407333	944.149109	30.648499	0.609596	0	-0.441734	0	0	0	-0	0.444733	-0
2.701042	0	0	0	0	0	0	136.912155	928.270935	29.1003	0.607175	0	-0.44159	0	0	0	-0	0.563662	-0
2.702083	0	0	0	0	0	0	138.301697	912.325378	27.56571	0.604768	0	-0.441437	0	0	0	-0	0.680837	-0
2.703125	0	0	0	0	0	0	139.577271	896.3173829999999	26.044416	0.602372	0	-0.441275	0	0	0	-0	0.796073	-0
2.704167	0	0	0	0	0	0	140.741272	880.252258	24.535978	0.599989	0	-0.441104	0	0	0	-0	0.909186	-0
2.705208	0	0	0	0	0	0	141.796982	864.135498	23.0399	0.597618	0	-0.440925	0	0	0	-0	1.019986	-0
2.70625	0	0	0	0	0	0	142.748383	847.9729610000001	21.555674	0.595258	0	-0.440738	0	0	0	-0	1.128283	-0
2.707292	0	0	0	0	0	0	143.59996	831.770569	20.082832	0.592909	0	-0.440543	0	0	0	-0	1.233887	-0
2.708333	0	0	0	0	0	0	144.3564	815.5346070000001	18.621002	0.590568	0	-0.440341	0	0	0	-0	1.336604	-0
2.709375	0	0	0	0	0	0	145.022339	799.271484	17.169935	0.588236	0	-0.440131	0	0	0	-0	1.436241	-0
2.710417	0	0	0	0	0	0	145.602066	782.987793	15.729558	0.58591	0	-0.439914	0	0	0	-0	1.532604	-0
2.711458	0	0	0	0	0	0	146.099304	766.690247	14.299993	0.5835900000000001	0	-0.439688	0	0	0	-0	1.6255	-0
2.7125	0	0	0	0	0	0	146.517029	750.3855589999999	12.881581	0.581276	0	-0.439455	0	0	0	-0	1.714737	-0
2.713542	0	0	0	0	0	0	146.85733	734.080566	11.474898	0.578966	0	-0.439214	0	0	0	-0	1.800122	-0
2.714583	0	0	0	0	0	0	147.121292	717.782166	10.08076	0.576661	0	-0.438965	0	0	0	-0	1.881469	-0
2.715625	0	0	0	0	0	0	147.309082	701.497253	8.700213	0.574361	0	-0.438707	0	0	0	-0	1.958589	-0
2.716667	0	0	0	0	0	0	147.420013	685.232727	7.334536	0.572067	0	-0.438442	0	0	0	-0	2.0313	-0
2.717708	0	0	0	0	0	0	147.452621	668.995667	5.985212	0.569781	0	-0.438169	0	0	0	-0	2.099423	-0
2.71875	0	0	0	0	0	0	147.404938	652.793091	4.653911	0.567503	0	-0.437889	0	0	0	-0	2.162784	-0
2.719792	0	0	0	0	0	0	147.274643	636.632141	3.342458	0.565237	0	-0.437602	0	0	0	-0	2.221215	-0
2.720833	0	0	0	0	0	0	147.059357	620.520325	2.052803	0.562985	0	-0.437309	0	0	0	-0	2.274554	-0
2.721875	0	0	0	0	0	0	146.756805	604.465088	0.786984	0.560748	0	-0.437009	0	0	0	-0	2.322646	-0
2.722917	0	0	0	0	0	0	146.365067	588.474243	-0.45291	0.55853	0	-0.436705	0	0	0	-0	2.365346	-0
2.723958	0	0	0	0	0	0	145.88269	572.555969	-1.664775	0.556333	0	-0.436396	0	0	0	-0	2.402517	-0
2.725	0	0	0	0	0	0	145.308868	556.718567	-2.846529	0.55416	0	-0.436083	0	0	0	-0	2.434031	-0
2.726042	0	0	0	0	0	0	144.643433	540.970825	-3.996147	0.5520119999999999	0	-0.435767	0	0	0	-0	2.459771	-0
2.727083	0	0	0	0	0	0	143.886902	525.321716	-5.11169	0.549893	0	-0.435446	0	0	0	-0	2.479635	-0
2.728125	0	0	0	0	0	0	143.040451	509.780762	-6.191334	0.547803	0	-0.435123	0	0	0	-0	2.493528	-0
2.729167	0	0	0	0	0	0	142.105804	494.357513	-7.23339	0.545744	0	-0.434796	0	0	0	-0	2.501371	-0
2.730208	0	0	0	0	0	0	141.085159	479.06189	-8.236326999999999	0.543717	0	-0.434465	0	0	0	-0	2.5031	-0
2.73125	0	0	0	0	0	0	139.981125	463.904114	-9.198777	0.541722	0	-0.434129	0	0	0	-0	2.498662	-0
2.732292	0	0	0	0	0	0	138.796539	448.89447	-10.119547	0.539759	0	-0.433789	0	0	0	-0	2.488023	-0
2.733333	0	0	0	0	0	0	137.534439	434.043427	-10.99762	0.537828	0	-0.433442	0	0	0	-0	2.471162	-0
2.734375	0	0	0	0	0	0	136.197952	419.361664	-11.83215	0.535927	0	-0.433088	0	0	0	-0	2.448075	-0
2.735417	0	0	0	0	0	0	134.790222	404.859802	-12.622458	0.534054	0	-0.432725	0	0	0	-0	2.418774	-0
2.736458	0	0	0	0	0	0	133.314392	390.548676	-13.368021	0.532207	0	-0.432352	0	0	0	-0	2.383289	-0
2.7375	0	0	0	0	0	0	131.773483	376.439056	-14.068455	0.530383	0	-0.431967	0	0	0	-0	2.341666	-0
2.738542	0	0	0	0	0	0	130.170456	362.541718	-14.723503	0.528577	0	-0.431569	0	0	0	-0	2.293969	-0
2.739583	0	0	0	0	0	0	128.508087	348.867493	-15.33302	0.526788	0	-0.431156	0	0	0	-0	2.240279	-0
2.740625	0	0	0	0	0	0	126.788879	335.426971	-15.896952	0.52501	0	-0.430725	0	0	0	-0	2.180696	-0
2.741667	0	0	0	0	0	0	125.015091	322.230743	-16.415319	0.523239	0	-0.430274	0	0	0	-0	2.115334	-0
2.742708	0	0	0	0	0	0	123.188545	309.28891	-16.888212	0.521474	0	-0.4298	0	0	0	-0	2.044328	-0
2.74375	0	0	0	0	0	0	121.310555	296.611389	-17.315762	0.519709	0	-0.429301	0	0	0	-0	1.967828	-0
2.744792	0	0	0	0	0	0	119.381836	284.207397	-17.698139	0.517943	0	-0.428771	0	0	0	-0	1.886002	-0
2.745833	0	0	0	0	0	0	117.402374	272.085571	-18.035553	0.516176	0	-0.428208	0	0	0	-0	1.799032	-0
2.746875	0	0	0	0	0	0	115.371338	260.253693	-18.32823	0.514405	0	-0.427608	0	0	0	-0	1.707119	-0
2.747917	0	0	0	0	0	0	113.287079	248.718567	-18.576429	0.512634	0	-0.426965	0	0	0	-0	1.610478	-0
2.748958	0	0	0	0	0	0	111.147034	237.485947	-18.780436	0.510866	0	-0.426274	0	0	0	-0	1.509338	-0
2.75	0	0	0	0	0	0	108.947876	226.560303	-18.940571	0.509104	0	-0.425531	0	0	0	-0	1.403943	-0
2.751042	0	0	0	0	0	0	106.685539	215.944916	-19.057196	0.5073569999999999	0	-0.42473	0	0	0	-0	1.294551	-0
2.752083	0	0	0	0	0	0	104.355423	205.641693	-19.13073	0.505633	0	-0.423866	0	0	0	-0	1.181431	-0
2.753125	0	0	0	0	0	0	101.95266	195.651321	-19.161652	0.5039439999999999	0	-0.422932	0	0	0	-0	1.064866	-0
2.754167	0	0	0	0	0	0	99.472328	185.973236	-19.150528	0.502301	0	-0.421925	0	0	0	-0	0.945148	-0
2.755208	0	0	0	0	0	0	96.909859	176.605789	-19.098019	0.500722	0	-0.420839	0	0	0	-0	0.8225789999999999	-0
2.75625	0	0	0	0	0	0	94.261314	167.546341	-19.004892	0.499222	0	-0.419669	0	0	0	-0	0.697471	-0
2.757292	0	0	0	0	0	0	91.523804	158.791489	-18.872044	0.497821	0	-0.418412	0	0	0	-0	0.570143	-0
2.758333	0	0	0	0	0	0	88.695786	150.337265	-18.7005	0.496539	0	-0.417063	0	0	0	-0	0.44092	-0
2.759375	0	0	0	0	0	0	85.777412	142.179321	-18.491436	0.495399	0	-0.41562	0	0	0	-0	0.310134	-0
2.760417	0	0	0	0	0	0	82.770737	134.313095	-18.246178	0.494424	0	-0.414079	0	0	0	-0	0.17812	-0
2.761458	0	0	0	0	0	0	79.67993199999999	126.734085	-17.966206	0.493642	0	-0.412438	0	0	0	-0	0.045218	-0
2.7625	0	0	0	0	0	0	76.511383	119.437897	-17.653154	0.493078	0	-0.410694	0	0	0	0	-0.088232	0
2.763542	0	0	0	0	0	0	73.27366600000001	112.420395	-17.308809	0.492763	0	-0.408844	0	0	0	0	-0.221888	0
2.764583	0	0	0	0	0	0	69.977501	105.677795	-16.935093	0.492727	0	-0.406884	0	0	0	0	-0.35541	0
2.765625	0	0	0	0	0	0	66.63557400000001	99.206642	-16.53406	0.493001	0	-0.404812	0	0	0	0	-0.488457	0
2.766667	0	0	0	0	0	0	63.26226	93.003799	-16.107864	0.493618	0	-0.402623	0	0	0	0	-0.620694	0
2.767708	0	0	0	0	0	0	59.873341	87.06641399999999	-15.658765	0.494612	0	-0.400312	0	0	0	0	-0.751787	0
2.76875	0	0	0	0	0	0	56.485619	81.3918	-15.189075	0.496016	0	-0.397872	0	0	0	0	-0.8814109999999999	0
2.769792	0	0	0	0	0	0	53.116528	75.977356	-14.70116	0.497862	0	-0.395297	0	0	0	0	-1.009244	0
2.770833	0	0	0	0	0	0	49.783703	70.820427	-14.197397	0.500183	0	-0.392577	0	0	0	0	-1.134974	0
2.771875	0	0	0	0	0	0	46.504604	65.91819	-13.680158	0.503008	0	-0.389703	0	0	0	0	-1.258296	0
2.772917	0	0	0	0	0	0	43.296085	61.267567	-13.151779	0.506363	0	-0.38666	0	0	0	0	-1.378917	0
2.773958	0	0	0	0	0	0	40.174065	56.865097	-12.614546	0.51027	0	-0.383435	0	0	0	0	-1.496552	0
2.775	0	0	0	0	0	0	37.153198	52.706882	-12.070661	0.514746	0	-0.38001	0	0	0	0	-1.61093	0
2.776042	0	0	0	0	0	0	34.246628	48.788517	-11.522237	0.5198	0	-0.376362	0	0	0	0	-1.72179	0
2.777083	0	0	0	0	0	0	31.465757	45.105045	-10.971276	0.525434	0	-0.372466	0	0	0	0	-1.828887	0
2.778125	0	0	0	0	0	0	28.820126	41.650967	-10.419663	0.531636	0	-0.368291	0	0	0	0	-1.931989	0
2.779167	0	0	0	0	0	0	26.317312	38.420204	-9.869159	0.538385	0	-0.363802	0	0	0	0	-2.030878	0
2.780208	0	0	0	0	0	0	23.962925	35.406143	-9.321396	0.545641	0	-0.358956	0	0	0	0	-2.125352	0
2.78125	0	0	0	0	0	0	21.760616	32.601643	-8.777884	0.553349	0	-0.353708	0	0	0	0	-2.215225	0
2.782292	0	0	0	0	0	0	19.712175	29.999084	-8.240009000000001	0.561431	0	-0.348002	0	0	0	0	-2.300326	0
2.783333	0	0	0	0	0	0	17.817638	27.590422	-7.70905	0.569787	0	-0.34178	0	0	0	0	-2.380502	0
2.784375	0	0	0	0	0	0	16.075436	25.367226	-7.186177	0.5782929999999999	0	-0.334978	0	0	0	0	-2.455616	0
2.785417	0	0	0	0	0	0	14.482575	23.320766	-6.67247	0.586798	0	-0.327529	0	0	0	0	-2.525548	0
2.786458	0	0	0	0	0	0	13.03481	21.442074	-6.168927	0.595128	0	-0.319367	0	0	0	0	-2.590194	0
